# xmcd CD database file
#
# Track frame offsets:
#	150
#	16062
#	37817
#	52422
#	74027
#	90342
#	103390
#	117867
#	135250
#	150945
#	170640
#	193237
#	207217
#	225845
#	240075
#	257535
#	275755
#	289377
#
# Disc length: 4253 seconds
#
# Revision: 0
# Processed by: cddbd v1.4PL0 Copyright (c) Steve Scherf et al.
# Submitted via: CDex 1.50
#
DISCID=f5109b12
DTITLE=Hot medals - Freeze an' Melt
DYEAR=1995
DGENRE=Jazz
TTITLE0=Too busy
TTITLE1=Georgia on my mind
TTITLE2=Freeze an' melt
TTITLE3=Jeep's blues
TTITLE4=Caravan
TTITLE5=Lonesome
TTITLE6=Dans les Rues d' Antibes
TTITLE7=Dinah
TTITLE8=Blues my naughty sweetie gives to me
TTITLE9=East Saint Louis toodle-oo
TTITLE10=Pennies from heaven
TTITLE11=Where the lazy river goes by
TTITLE12=Black and tan fantasy
TTITLE13=Some of these days
TTITLE14=Moanin'  low
TTITLE15=Sans chemise, sans pantalons
TTITLE16=New Orleans
TTITLE17=Fats Waller medley
EXTD=YEAR: 1995
EXTT0=
EXTT1=
EXTT2=
EXTT3=
EXTT4=
EXTT5=
EXTT6=
EXTT7=
EXTT8=
EXTT9=
EXTT10=
EXTT11=
EXTT12=
EXTT13=
EXTT14=
EXTT15=
EXTT16=
EXTT17=
PLAYORDER=
